<?xml version="1.0" encoding="utf-8"?>
<!-- Generator: Adobe Illustrator 16.0.3, SVG Export Plug-In . SVG Version: 6.00 Build 0)  -->
<!DOCTYPE svg PUBLIC "-//W3C//DTD SVG 1.1//EN" "http://www.w3.org/Graphics/SVG/1.1/DTD/svg11.dtd">
<svg version="1.1" id="圖層_1" xmlns="http://www.w3.org/2000/svg" xmlns:xlink="http://www.w3.org/1999/xlink" x="0px" y="0px"
	 width="20px" height="20px" viewBox="9.813 7.542 20 20" enable-background="new 9.813 7.542 20 20" xml:space="preserve">
<path fill="#00C5DC" d="M29.673,11.099l-2.657-2.336c-0.082-0.072-0.19-0.109-0.297-0.102c-0.109,0.007-0.211,0.058-0.281,0.138
	L16.8,19.771l-3.427-4.536c-0.066-0.086-0.163-0.143-0.27-0.158c-0.108-0.016-0.217,0.013-0.304,0.079l-2.822,2.132
	c-0.181,0.137-0.217,0.395-0.08,0.574l6.345,8.399c0.075,0.098,0.189,0.158,0.312,0.163h0.015c0.118,0,0.23-0.052,0.308-0.14
	l12.832-14.606C29.859,11.507,29.843,11.249,29.673,11.099L29.673,11.099z"/>
</svg>
