<?xml version="1.0" encoding="utf-8"?>
<!-- Generator: Adobe Illustrator 16.0.3, SVG Export Plug-In . SVG Version: 6.00 Build 0)  -->
<!DOCTYPE svg PUBLIC "-//W3C//DTD SVG 1.1//EN" "http://www.w3.org/Graphics/SVG/1.1/DTD/svg11.dtd">
<svg version="1.1" id="圖層_2" xmlns="http://www.w3.org/2000/svg" xmlns:xlink="http://www.w3.org/1999/xlink" x="0px" y="0px"
	 width="100px" height="100px" viewBox="0 0 100 100" enable-background="new 0 0 100 100" xml:space="preserve">
<path fill="#00C5DC" d="M19.861,3.557l-2.657-2.336c-0.082-0.072-0.19-0.109-0.297-0.102c-0.109,0.007-0.211,0.058-0.281,0.138
	L6.987,12.229L3.56,7.692C3.494,7.606,3.397,7.55,3.29,7.535C3.182,7.519,3.073,7.547,2.985,7.613L0.163,9.745
	c-0.181,0.137-0.217,0.395-0.08,0.574l6.345,8.399c0.075,0.098,0.189,0.158,0.312,0.163h0.015c0.118,0,0.23-0.052,0.308-0.14
	L19.897,4.135C20.047,3.965,20.031,3.707,19.861,3.557L19.861,3.557z"/>
<g>
	<g>
		<path fill="#FFFFFF" d="M20,6.419l10,10l10-10l-2.838-2.838L30,10.745l-7.163-7.164L20,6.419z"/>
	</g>
</g>
<g>
	<g>
		<path fill="#1FB8CD" d="M40,6.419l10,10l10-10l-2.838-2.838L50,10.745l-7.163-7.164L40,6.419z"/>
	</g>
</g>
<g>
	<g>
		<path fill="#FFFFFF" d="M80,13.581l-10-10l-10,10l2.837,2.837l7.162-7.164l7.164,7.165L80,13.581z"/>
	</g>
</g>
<g>
	<g>
		<path fill="#1FB8CD" d="M100,13.582l-10-10l-10,10l2.837,2.837l7.162-7.164l7.163,7.164L100,13.582z"/>
	</g>
</g>
</svg>
