<?xml version="1.0" encoding="utf-8"?>
<!-- Generator: Adobe Illustrator 16.0.0, SVG Export Plug-In . SVG Version: 6.00 Build 0)  -->
<!DOCTYPE svg PUBLIC "-//W3C//DTD SVG 1.1//EN" "http://www.w3.org/Graphics/SVG/1.1/DTD/svg11.dtd">
<svg version="1.1" id="圖層_1" xmlns="http://www.w3.org/2000/svg" xmlns:xlink="http://www.w3.org/1999/xlink" x="0px" y="0px"
	 width="226.771px" height="226.771px" viewBox="0 0 226.771 226.771" enable-background="new 0 0 226.771 226.771"
	 xml:space="preserve">
<g>
	<path d="M193.08,94.579c0.514-2.008,0.961-4.035,1.33-6.029c0.385-2.313,0.449-3.244,0.453-3.593
		c-0.012-2.56-0.631-4.232-1.949-5.343c-1.381-1.171-3.805-1.79-7.012-1.79h-0.107c-5.314,0-10.725,1.262-13.785,3.216
		c-2.268,1.464-3.84,3.172-5.094,5.538c-1.215,2.293-2.021,5.093-2.809,8l-9.803,41.875l-28.566-0.003l-0.943,3.476
		c-0.645,2.847-1.158,5.432-1.568,7.752c-0.414,2.321-0.6,4.143-0.6,5.44c0,2.701,1.107,4.767,3.334,6.213
		c2.229,1.461,6.1,1.716,9.74,1.324c3.969-0.436,11.01,5.423-0.521,15.728c-8.408,7.514-36.115,16.934-53.057,5.641
		c-6.99-4.636-10.648-11.153-10.648-19.957c0-2.027,0.246-4.435,0.697-7.2c0.445-2.753,1.084-5.591,1.9-8.51l13.352-49.021H72.555
		l6.152-22.484h14.852l9.277-35.322h37.547c0.295,0,0.588,0.016,0.877,0.044l2.334-9.312l23.99,0.007c2.42,0,4.602,0.821,6.15,2.312
		c1.561,1.493,2.418,3.567,2.414,5.839c0,0.792-0.104,1.598-0.309,2.394l-5.357,21.158c3.959-2.373,7.98-4.209,12.553-5.741
		c4.854-1.617,11.344-3.473,18.525-3.473c0.717,0,1.398,0.036,2.094,0.058c-11.805-21.419-34.789-35.091-64.635-35.091
		c-52.832,0-107.141,42.835-121.295,95.665c-14.152,52.833,17.195,95.659,70.029,95.659c44.881,0,90.816-30.904,112.309-72.593
		l-17.137,0.002L193.08,94.579z"/>
	<path d="M204.865,55.126c0.357,0.713,0.703,1.434,1.035,2.163c-1.371-0.103-2.777-0.174-4.262-0.174
		c-5.17,0-10.48,1.003-17.221,3.251c-5.93,1.987-10.912,4.539-16.158,8.274l-4.836,3.444l8.193-32.348
		c0.115-0.452,0.172-0.896,0.172-1.32c-0.004-1.086-0.375-2.02-1.078-2.697c-0.738-0.706-1.795-1.084-3.053-1.094l-20.664-0.005
		l-1.625,6.481c2.252,1.576,3.727,4.187,3.727,7.151c0,0.597-0.061,1.193-0.17,1.753h-0.014l-6.406,24.846h16.072l-5.842,22.484
		h-16.373l-9.441,34.758l23.928,0.002l9.035-38.589c0.898-3.316,1.756-6.267,3.176-8.964c1.57-2.989,3.73-5.335,6.604-7.175
		c3.867-2.431,9.922-3.89,16.201-3.904h0.002c4.361,0.005,7.584,0.925,9.846,2.81c2.311,1.916,3.523,4.893,3.508,8.608
		c-0.004,1.09-0.209,2.547-0.514,4.399c-0.402,2.167-0.873,4.3-1.398,6.351l-8.84,36.467l13.736-0.003
		c2.82-6.051,5.129-12.305,6.846-18.707C214.922,91.462,212.951,71.262,204.865,55.126z"/>
</g>
</svg>
